<?xml version="1.0" encoding="UTF-8" standalone="no"?>
<svg
   xmlns:dc="http://purl.org/dc/elements/1.1/"
   xmlns:cc="http://creativecommons.org/ns#"
   xmlns:rdf="http://www.w3.org/1999/02/22-rdf-syntax-ns#"
   xmlns:svg="http://www.w3.org/2000/svg"
   xmlns="http://www.w3.org/2000/svg"
   width="165"
   height="38"
   id="svg4295"
   version="1.1">
  <defs
     id="defs4297" />
  <metadata
     id="metadata4300">
    <rdf:RDF>
      <cc:Work
         rdf:about="">
        <dc:format>image/svg+xml</dc:format>
        <dc:type
           rdf:resource="http://purl.org/dc/dcmitype/StillImage" />
        <dc:title></dc:title>
      </cc:Work>
    </rdf:RDF>
  </metadata>
  <g
     id="layer1"
     transform="matrix(0.91452606,0,0,0.91452606,-96.10945,-42.28843)">
    <path
       id="path3042"
       style="font-style:normal;font-variant:normal;font-weight:normal;font-stretch:normal;font-size:medium;line-height:125%;font-family:'Anita Semi-square';-inkscape-font-specification:'Anita Semi-square';text-align:center;letter-spacing:0px;word-spacing:0px;text-anchor:middle;fill:#da4e43;fill-opacity:1;stroke:none"
       d="m 158.21974,64.641487 0,-3.564007 12.51666,0 c 3.56967,1.7e-5 5.36588,1.750756 5.38863,5.252221 l 0,12.653078 -14.75055,0 c -3.29685,0 -4.94527,-1.489264 -4.94527,-4.467798 l 0,-2.472636 c 0,-3.023997 1.52337,-4.541683 4.57012,-4.553063 l 9.46422,0 0,3.58106 -7.87833,0 c -1.71664,8e-6 -2.58064,0.699167 -2.59201,2.097478 l 0.017,0 c 0,1.489271 0.79579,2.233903 2.38738,2.2339 l 10.14633,0 -0.017,-7.92949 c -1e-5,-1.887148 -0.80149,-2.830728 -2.40443,-2.830743 l -11.90275,0" />
    <path
       id="path3044"
       style="font-style:normal;font-variant:normal;font-weight:normal;font-stretch:normal;font-size:medium;line-height:125%;font-family:'Anita Semi-square';-inkscape-font-specification:'Anita Semi-square';text-align:center;letter-spacing:0px;word-spacing:0px;text-anchor:middle;fill:#da4e43;fill-opacity:1;stroke:none"
       d="m 191.8476,66.909491 c -0.0228,-1.489252 -0.78443,-2.239568 -2.28506,-2.250952 l -5.67854,0 0,14.32424 -3.58106,0 -0.017,-17.888247 21.43521,0 c 3.60377,0.01138 5.41135,1.801915 5.42275,5.37159 l 0,12.516657 -3.61517,0 -0.017,-11.970971 c -0.0114,-1.557464 -0.80718,-2.341885 -2.38737,-2.353269 l -5.57622,0 0,14.290135 -3.70043,0 0,-12.039183" />
    <path
       id="path3046"
       style="font-style:normal;font-variant:normal;font-weight:normal;font-stretch:normal;font-size:medium;line-height:125%;font-family:'Anita  Semi-square';-inkscape-font-specification:'Anita  Semi-square';text-align:center;letter-spacing:0px;word-spacing:0px;text-anchor:middle;fill:#616161;fill-opacity:1;stroke:none"
       d="m 229.8921,75.40172 0,3.581059 -13.53983,0 c -3.54695,-0.0341 -5.33748,-1.790528 -5.37158,-5.269274 l 0,-7.264435 c 0,-3.569676 1.79053,-5.360204 5.37158,-5.37159 l 8.96971,0 c 3.54694,0.02275 5.33747,1.512019 5.37159,4.467798 l 0,5.593275 -14.17076,0 0,-3.649271 10.57265,0 0.017,-1.483582 c -0.0113,-0.898093 -0.60822,-1.347146 -1.79053,-1.347161 l -8.0318,0 c -1.81896,1.5e-5 -2.72843,0.852647 -2.72843,2.557901 l 0,5.542116 c 0,1.773482 0.80716,2.654536 2.42148,2.643164 l 12.90887,0" />
    <path
       id="path3048"
       style="font-style:normal;font-variant:normal;font-weight:normal;font-stretch:normal;font-size:medium;line-height:125%;font-family:'Anita  Semi-square';-inkscape-font-specification:'Anita  Semi-square';text-align:center;letter-spacing:0px;word-spacing:0px;text-anchor:middle;fill:#616161;fill-opacity:1;stroke:none"
       d="m 246.41613,66.909491 c -0.0228,-1.489252 -0.78443,-2.239568 -2.28506,-2.250952 l -5.67854,0 0,14.32424 -3.58106,0 -0.017,-17.888247 21.4352,0 c 3.60377,0.01138 5.41135,1.801915 5.42275,5.37159 l 0,12.516657 -3.61517,0 -0.017,-11.970971 c -0.0114,-1.557464 -0.80717,-2.341885 -2.38737,-2.353269 l -5.57622,0 0,14.290135 -3.70043,0 0,-12.039183" />
    <path
       id="path3050"
       style="font-style:normal;font-variant:normal;font-weight:normal;font-stretch:normal;font-size:medium;line-height:125%;font-family:'Anita  Semi-square';-inkscape-font-specification:'Anita  Semi-square';text-align:center;letter-spacing:0px;word-spacing:0px;text-anchor:middle;fill:#616161;fill-opacity:1;stroke:none"
       d="m 279.43009,64.641487 -7.92948,0 c -1.55749,0.01139 -2.3476,0.773067 -2.37033,2.285058 l 0,6.667592 c -0.0114,1.205059 1.02315,1.81327 3.10359,1.824635 l 7.0598,0 c 1.60294,4e-6 2.41009,-0.449049 2.42147,-1.347161 l 0,-7.145066 c 0,-1.511991 -0.76169,-2.273676 -2.28505,-2.285058 m 5.90022,1.807583 0,8.100016 c -0.0113,2.93306 -1.82465,4.416641 -5.4398,4.450746 l -8.9697,0 c -3.56969,-0.0341 -5.36022,-1.563159 -5.37159,-4.587167 l 0,-7.963595 c 0.0341,-3.569676 1.836,-5.360204 5.4057,-5.37159 l 8.95264,0 c 3.58104,1.7e-5 5.38863,1.790546 5.42275,5.37159" />
    <path
       id="path3044-4"
       d="m 180.34926,61.08947 5.34771,3.574239 3.87437,0 c 1.50063,0.01139 2.26909,0.748058 2.29188,2.23731 l 0,1.882614 3.68337,2.455584 0,-6.575508 5.59328,0 c 1.58019,0.01139 2.36238,0.788983 2.37373,2.346447 l 0.0272,9.576777 3.60152,2.401016 0,-12.523479 c -0.0114,-3.569675 -1.79851,-5.363615 -5.40228,-5.375 l -21.39087,0 z"
       style="font-style:normal;font-variant:normal;font-weight:normal;font-stretch:normal;font-size:40px;line-height:125%;font-family:'Anita  Semi-square';-inkscape-font-specification:'Anita  Semi-square';text-align:center;letter-spacing:0px;word-spacing:0px;text-anchor:middle;fill:#616161;fill-opacity:1;stroke:none" />
    <path
       style="color:#000000;font-style:normal;font-variant:normal;font-weight:normal;font-stretch:normal;font-size:medium;line-height:normal;font-family:sans-serif;text-indent:0;text-align:start;text-decoration:none;text-decoration-line:none;text-decoration-style:solid;text-decoration-color:#000000;letter-spacing:normal;word-spacing:normal;text-transform:none;direction:ltr;block-progression:tb;writing-mode:lr-tb;baseline-shift:baseline;text-anchor:start;white-space:normal;clip-rule:nonzero;display:inline;overflow:visible;visibility:visible;opacity:1;isolation:auto;mix-blend-mode:normal;color-interpolation:sRGB;color-interpolation-filters:linearRGB;solid-color:#000000;solid-opacity:1;fill:#616161;fill-opacity:1;fill-rule:evenodd;stroke:none;stroke-width:3.3614707;stroke-linecap:butt;stroke-linejoin:miter;stroke-miterlimit:4;stroke-dasharray:none;stroke-dashoffset:0;stroke-opacity:1;color-rendering:auto;image-rendering:auto;shape-rendering:auto;text-rendering:auto;enable-background:accumulate"
       d="m 114.58398,48.929688 c -5.15598,0 -9.22851,4.782211 -9.22851,10.009765 l 0,4.164063 0,4.164062 0,4.164063 0,4.164062 0,4.164063 0,5.845703 5.45508,0 3.77343,0 3.77344,0 3.77344,0 3.77344,0 3.77343,0 c 3.10051,0 5.59483,-1.125475 7.12891,-3.029297 0.19176,-0.237978 0.37532,-0.480678 0.53067,-0.740036 0.23276,-0.388587 0.15869,-0.257107 0.23276,-0.388587 0.0741,-0.131481 0.84069,-1.601748 0.90788,-1.736944 -1.23998,0.100555 -2.46481,-0.206319 -3.35866,-0.536904 -0.21518,0.316415 -0.71284,1.021372 -0.93179,1.293096 -0.87581,1.086896 -2.15585,1.777344 -4.50977,1.777344 l -3.77343,0 -3.77344,0 -3.77344,0 -3.77344,0 -3.77343,0 -2.0918,0 0,-2.484375 0,-4.164063 0,-4.164062 0,-4.164063 0,-4.164062 0,-4.164063 c 0,-3.410833 2.93022,-6.648437 5.86523,-6.648437 l 3.77344,0 3.77344,0 3.77344,0 3.77343,0 3.77344,0 2.09375,0 0,2.484375 -0.007,5.899278 c 1.21609,-0.363417 2.04148,-0.293278 3.39772,-0.327902 l -0.0299,-3.489352 0,-2.082031 0,-5.845703 -5.45508,0 -3.77344,0 -3.77343,0 -3.77344,0 -3.77344,0 z"
       id="path3452" />
    <path
       id="path3040"
       style="font-style:normal;font-variant:normal;font-weight:normal;font-stretch:normal;font-size:medium;line-height:125%;font-family:'Anita Semi-square';-inkscape-font-specification:'Anita Semi-square';text-align:center;letter-spacing:0px;word-spacing:0px;text-anchor:middle;fill:#da4e43;fill-opacity:1;stroke:none"
       d="m 151.44983,75.40172 0,3.581059 -13.53982,0 c -3.54696,-0.0341 -5.33748,-1.790528 -5.37159,-5.269274 l 0,-7.264435 c 0,-3.569676 1.79053,-5.360204 5.37159,-5.37159 l 8.9697,0 c 3.54694,0.02275 5.33747,1.512019 5.37159,4.467798 l 0,5.593275 -14.17076,0 0,-3.649271 10.57265,0 0.017,-1.483582 c -0.0113,-0.898093 -0.60823,-1.347146 -1.79053,-1.347161 l -8.03181,0 c -1.81896,1.5e-5 -2.72843,0.852647 -2.72843,2.557901 l 0,5.542116 c 0,1.773482 0.80716,2.654536 2.42148,2.643164 l 12.90888,0" />
    <path
       id="path3038"
       style="font-style:normal;font-variant:normal;font-weight:normal;font-stretch:normal;font-size:medium;line-height:125%;font-family:'Anita Semi-square';-inkscape-font-specification:'Anita Semi-square';text-align:center;letter-spacing:0px;word-spacing:0px;text-anchor:middle;fill:#da4e43;fill-opacity:1;stroke:none"
       d="m 132.69092,56.357032 0,3.488934 -8.65525,0 -0.019,19.045217 -3.48894,0 0.0189,-19.045217 -8.82298,0 0.0168,-3.488934 20.95041,0" />
  </g>
</svg>
